<svg width="64" height="64" viewBox="0 0 64 64" fill="none" xmlns="http://www.w3.org/2000/svg">
<path d="M28.6299 23H35.3701C38.3282 23 40.6396 25.5541 40.3453 28.4975L38.5453 46.4975C38.2897 49.0535 36.1388 51 33.5701 51H30.4299C27.8612 51 25.7103 49.0535 25.4547 46.4975L23.6547 28.4975C23.3604 25.5541 25.6718 23 28.6299 23Z" fill="#F1F2FF" stroke="#4572E3" stroke-width="2"/>
<circle cx="32" cy="18" r="6" fill="#F1F2FF" stroke="#4572E3" stroke-width="2"/>
<path d="M43.6299 27H50.3701C53.3282 27 55.6396 29.5541 55.3453 32.4975L53.5453 50.4975C53.2897 53.0535 51.1388 55 48.5701 55H45.4299C42.8612 55 40.7103 53.0535 40.4547 50.4975L38.6547 32.4975C38.3604 29.5541 40.6718 27 43.6299 27Z" fill="#F1F2FF" stroke="#4572E3" stroke-width="2"/>
<circle cx="47" cy="22" r="6" fill="#F1F2FF" stroke="#4572E3" stroke-width="2"/>
<path d="M13.6299 27H20.3701C23.3282 27 25.6396 29.5541 25.3453 32.4975L23.5453 50.4975C23.2897 53.0535 21.1388 55 18.5701 55H15.4299C12.8612 55 10.7103 53.0535 10.4547 50.4975L8.65474 32.4975C8.3604 29.5541 10.6718 27 13.6299 27Z" fill="#F1F2FF" stroke="#4572E3" stroke-width="2"/>
<circle cx="17" cy="22" r="6" fill="#F1F2FF" stroke="#4572E3" stroke-width="2"/>
</svg>
