<svg width="64" height="64" viewBox="0 0 64 64" fill="none" xmlns="http://www.w3.org/2000/svg">
<rect x="4" y="6" width="56" height="56" rx="4" fill="#F1F2FF" stroke="#14121D" stroke-width="2"/>
<rect x="23" y="1" width="5" height="10" rx="2.5" fill="#F1F2FF" stroke="#14121D" stroke-width="2"/>
<rect x="36" y="1" width="5" height="10" rx="2.5" fill="#F1F2FF" stroke="#14121D" stroke-width="2"/>
<rect x="49" y="1" width="5" height="10" rx="2.5" fill="#F1F2FF" stroke="#14121D" stroke-width="2"/>
<rect x="10" y="1" width="5" height="10" rx="2.5" fill="#F1F2FF" stroke="#14121D" stroke-width="2"/>
<line x1="3" y1="18" x2="60" y2="18" stroke="#14121D" stroke-width="2"/>
<path d="M32 23.2361L35.7637 34.8197C36.0315 35.6437 36.7994 36.2016 37.6659 36.2016H49.8456L39.992 43.3607C39.291 43.87 38.9977 44.7727 39.2654 45.5967L43.0292 57.1803L33.1756 50.0213C32.4746 49.512 31.5254 49.512 30.8244 50.0213L20.9708 57.1803L24.7346 45.5967C25.0023 44.7727 24.709 43.87 24.008 43.3607L14.1544 36.2016L26.3342 36.2016C27.2006 36.2016 27.9685 35.6437 28.2363 34.8197L32 23.2361Z" stroke="#14121D" stroke-width="2"/>
</svg>
