<svg width="64" height="64" viewBox="0 0 64 64" fill="none" xmlns="http://www.w3.org/2000/svg">
<path d="M24.6464 20.0244H39.3536C42.3166 20.0244 44.6296 22.5866 44.3275 25.5342L41.3575 54.5098C41.0961 57.0605 38.9476 59 36.3836 59H27.6164C25.0524 59 22.9039 57.0605 22.6425 54.5098L19.6725 25.5342C19.3704 22.5866 21.6834 20.0244 24.6464 20.0244Z" fill="#F1F2FF" stroke="#4572E3" stroke-width="2"/>
<path d="M40.8 13.561C40.8 18.2659 36.8835 22.122 32 22.122C27.1165 22.122 23.2 18.2659 23.2 13.561C23.2 8.85601 27.1165 5 32 5C36.8835 5 40.8 8.85601 40.8 13.561Z" fill="#F1F2FF" stroke="#4572E3" stroke-width="2"/>
</svg>
